<svg width="27" height="27" viewBox="0 0 27 27" fill="none" xmlns="http://www.w3.org/2000/svg">
<g id="Group 3">
<path id="Vector" d="M13.5 26.8334C20.9336 26.8334 26.8334 20.8157 26.8334 13.5C26.8334 6.06639 20.8157 0.166687 13.5 0.166687C6.06639 0.166687 0.166687 6.18439 0.166687 13.5C0.166687 20.8157 6.18439 26.8334 13.5 26.8334Z" fill="#2C374B"/>
<path id="Vector_2" fill-rule="evenodd" clip-rule="evenodd" d="M20.8157 8.66229C20.6977 8.54429 14.916 5.12246 14.208 4.88647C13.9721 4.76848 13.3821 4.65049 13.0281 4.76848C12.6741 4.88647 6.53842 8.4263 6.30244 8.66229C6.18444 8.78028 6.06645 9.01627 5.94845 9.13426C5.83046 9.37025 5.83046 9.48825 5.83046 13.618V17.8658L6.65642 18.3378C7.1284 18.5738 7.48238 18.8098 7.48238 18.8098C7.60037 18.8098 13.1461 9.96022 13.1461 9.84223C13.1461 9.72423 11.8482 9.72423 11.4942 9.84223C11.0222 9.96022 10.6682 10.1962 10.4322 10.4322C10.3142 10.5502 9.60627 11.7301 8.66232 13.0281C7.83636 14.326 7.1284 15.5059 7.1284 15.5059C7.1284 15.5059 7.1284 14.326 7.1284 12.6741V9.72423L7.24639 9.60624C7.48238 9.37025 13.5001 5.94842 13.7361 5.94842C13.8541 5.94842 13.9721 5.94842 15.388 6.77438C15.86 7.01037 17.1579 7.71833 18.2198 8.4263C19.2818 9.01627 20.2257 9.60624 20.3437 9.72423L20.4617 9.84223V15.9779L17.5119 11.3762C17.3939 11.1402 17.2759 10.9042 17.1579 10.7862C17.1579 10.7862 17.0399 11.0222 16.3319 12.2021C16.2139 12.3201 16.0959 12.5561 16.0959 12.6741L15.978 12.9101L16.0959 13.0281L16.2139 13.1461C16.2139 13.1461 16.2139 13.2641 16.3319 13.2641L16.5679 13.618C16.5679 13.618 16.5679 13.736 16.6859 13.736C16.8039 13.854 16.9219 14.09 16.9219 14.208C16.9219 14.208 16.9219 14.208 16.9219 14.326L19.3998 18.3378L19.1638 18.4558C19.0458 18.5738 18.9278 18.5738 18.8098 18.5738L15.742 13.854L15.624 13.736L15.388 14.208L14.208 16.0959L16.5679 19.8717C16.2139 20.1077 14.208 21.5236 14.09 21.5236C13.9721 21.5236 11.2582 19.7537 11.3762 19.6357C11.3762 19.6357 12.2021 18.2198 13.1461 16.5679C13.9721 15.152 15.034 13.3821 15.742 12.2021C16.5679 10.7862 16.9219 10.0782 16.9219 10.0782C16.9219 10.0782 16.3319 10.0782 15.624 10.0782H14.444L11.7302 14.562C10.7862 16.2139 9.84226 17.7478 9.37028 18.5738C8.54432 18.6918 8.30834 18.9278 8.30834 18.9278L8.19034 19.1638L10.3142 20.3437C11.4942 21.0517 12.5561 21.6416 12.7921 21.7596C13.1461 21.9956 13.7361 21.9956 13.9721 21.9956C14.208 21.8776 20.3437 18.3378 20.6977 18.1018C20.8157 17.9838 20.9337 17.8658 21.0517 17.6298L21.1697 17.2759V13.3821V9.48824L21.0517 9.25226C21.0517 9.01627 20.8157 8.78028 20.8157 8.66229Z" fill="white"/>
<path id="Vector_3" d="M20.2257 15.8599L16.6859 10.4322L15.388 12.5561L18.8098 18.1018L20.3437 17.3938L20.2257 15.8599Z" fill="#24A2EE"/>
<path id="Vector_4" d="M18.5738 18.8097L15.034 13.382L13.5001 15.7419L16.3319 20.2257L18.1018 19.5177L18.5738 18.8097Z" fill="#24A2EE"/>
<path id="Vector_5" fill-rule="evenodd" clip-rule="evenodd" d="M7.01035 9.72424L13.5 5.94843L19.9897 9.72424V17.2759L13.5 21.0517L8.66227 18.3378L8.0723 19.3998L13.382 22.4676C13.5 22.5856 13.618 22.5856 13.736 22.4676L21.1696 18.2198C21.2876 18.1018 21.4056 17.9838 21.4056 17.8658V9.37026C21.4056 9.25227 21.2876 9.13427 21.1696 9.01628L13.736 4.76849C13.618 4.65049 13.5 4.65049 13.382 4.76849L5.94841 8.89828C5.83041 9.01628 5.71242 9.13427 5.71242 9.25226V17.7478C5.71242 17.8658 5.83041 17.9838 5.94841 18.1018L7.48233 18.9278L8.19029 17.8658L7.12835 17.2759V9.72424H7.01035Z" fill="#98BCDC"/>
<path id="Vector_6" d="M16.3319 9.72418H13.854L8.0723 19.1637L10.0782 20.3437L16.3319 9.72418Z" fill="white"/>
<path id="Vector_7" d="M10.0782 10.6682C10.6682 9.72423 12.3201 9.72423 13.0281 9.84223L7.36434 18.9278C7.12835 18.8098 6.65637 18.5738 6.30239 18.3378C5.83041 18.1018 5.71242 18.1018 5.71242 17.7478V17.2759C7.01035 15.3879 9.48823 11.6121 10.0782 10.6682Z" fill="white"/>
</g>
</svg>
