<svg width="24" height="33" viewBox="0 0 24 33" fill="none" xmlns="http://www.w3.org/2000/svg">
<path id="Vector" d="M0 28.3773V4.37729C0 3.31642 0.421427 2.29901 1.17157 1.54886C1.92172 0.798716 2.93913 0.377289 4 0.377289H20C21.0609 0.377289 22.0783 0.798716 22.8284 1.54886C23.5786 2.29901 24 3.31642 24 4.37729V26.3773C24 26.9077 23.7893 27.4164 23.4142 27.7915C23.0391 28.1666 22.5304 28.3773 22 28.3773H2C2 28.9077 2.21071 29.4164 2.58579 29.7915C2.96086 30.1666 3.46957 30.3773 4 30.3773H23C23.2652 30.3773 23.5196 30.4826 23.7071 30.6702C23.8946 30.8577 24 31.1121 24 31.3773C24 31.6425 23.8946 31.8969 23.7071 32.0844C23.5196 32.2719 23.2652 32.3773 23 32.3773H4C2.93913 32.3773 1.92172 31.9559 1.17157 31.2057C0.421427 30.4556 0 29.4382 0 28.3773ZM22 4.37729C22 3.84686 21.7893 3.33815 21.4142 2.96308C21.0391 2.588 20.5304 2.37729 20 2.37729H4C3.46957 2.37729 2.96086 2.588 2.58579 2.96308C2.21071 3.33815 2 3.84686 2 4.37729V26.3773H22V4.37729ZM6 18.8773C6.00097 18.7298 6.02183 18.5832 6.062 18.4413C6.352 18.6613 6.656 18.8613 6.968 19.0413C8.50184 19.9136 10.2354 20.3739 12 20.3773C13.964 20.3773 15.726 19.7913 17.032 19.0393C17.344 18.8593 17.648 18.6593 17.938 18.4413C17.978 18.5813 18 18.7253 18 18.8773C18 19.4773 17.636 19.9773 17.34 20.2973C16.957 20.6967 16.5169 21.037 16.034 21.3073C14.8038 22.0051 13.4143 22.3736 12 22.3773C10.5857 22.3737 9.19619 22.0051 7.966 21.3073C7.48258 21.0378 7.04179 20.6981 6.658 20.2993C6.364 19.9773 6 19.4773 6 18.8773ZM6.062 14.4413C6.02103 14.583 6.00016 14.7298 6 14.8773C6 15.4773 6.364 15.9793 6.66 16.2973C7.04304 16.6966 7.48316 17.037 7.966 17.3073C9.19622 18.0051 10.5857 18.3736 12 18.3773C13.576 18.3773 14.996 17.9053 16.034 17.3073C16.554 17.0073 17.004 16.6633 17.342 16.2993C17.636 15.9793 18 15.4793 18 14.8793C18 14.7311 17.9792 14.5836 17.938 14.4413C17.6489 14.6601 17.3463 14.8605 17.032 15.0413C15.4982 15.9137 13.7646 16.374 12 16.3773C10.2353 16.3734 8.50161 15.9124 6.968 15.0393C6.65363 14.8594 6.35102 14.6596 6.062 14.4413ZM8 10.3773C8 9.95129 8.252 9.48129 8.966 9.06729C9.682 8.65129 10.748 8.37729 12 8.37729C13.252 8.37729 14.318 8.65129 15.034 9.06729C15.748 9.48129 16 9.95129 16 10.3773C16 10.8033 15.748 11.2733 15.034 11.6873C14.318 12.1033 13.252 12.3773 12 12.3773C10.748 12.3773 9.682 12.1033 8.966 11.6873C8.252 11.2733 8 10.8033 8 10.3773ZM12 6.37729C10.49 6.37729 9.056 6.70329 7.962 7.33729C6.868 7.97329 6 9.00329 6 10.3773C6 11.7513 6.868 12.7813 7.962 13.4173C9.056 14.0513 10.49 14.3773 12 14.3773C13.51 14.3773 14.944 14.0513 16.038 13.4173C17.132 12.7813 18 11.7513 18 10.3773C18 9.00329 17.132 7.97329 16.038 7.33729C14.944 6.70329 13.51 6.37729 12 6.37729Z" fill="white"/>
</svg>
