<svg width="28" height="28" viewBox="0 0 28 28" fill="none" xmlns="http://www.w3.org/2000/svg">
<g id="Avalanche/color" clip-path="url(#clip0_40_396)">
<g id="Group">
<path id="Vector" d="M13.835 27.335C21.1997 27.335 27.17 21.3647 27.17 14C27.17 6.63526 21.1997 0.664978 13.835 0.664978C6.47028 0.664978 0.5 6.63526 0.5 14C0.5 21.3647 6.47028 27.335 13.835 27.335Z" fill="#E84142"/>
<path id="Vector_2" fill-rule="evenodd" clip-rule="evenodd" d="M10.0995 19.6257H7.57585C7.04578 19.6257 6.78409 19.6257 6.62407 19.5232C6.53975 19.4682 6.46957 19.3941 6.41919 19.3069C6.3688 19.2198 6.33963 19.122 6.33403 19.0214C6.32403 18.8331 6.45488 18.6022 6.71741 18.1422L12.9449 7.14663C13.2099 6.6799 13.3449 6.44654 13.5133 6.35986C13.6034 6.31404 13.703 6.29016 13.8041 6.29016C13.9052 6.29016 14.0049 6.31404 14.095 6.35986C14.2642 6.44654 14.3984 6.6799 14.6634 7.14663L15.9436 9.38524L15.9502 9.39691C16.2361 9.89697 16.3811 10.152 16.4445 10.4187C16.5153 10.7106 16.5153 11.0152 16.4445 11.3071C16.3811 11.5763 16.2369 11.8322 15.9469 12.3406L12.6748 18.133L12.6665 18.1472C12.3781 18.6522 12.2331 18.9081 12.0297 19.1015C11.8109 19.311 11.5451 19.4653 11.2546 19.5515C10.9888 19.6257 10.6929 19.6257 10.0995 19.6257ZM16.4695 19.6257H20.0832C20.6166 19.6257 20.885 19.6257 21.045 19.5207C21.13 19.4653 21.2006 19.3906 21.251 19.3027C21.3014 19.2147 21.3302 19.116 21.3351 19.0148C21.3442 18.8323 21.2167 18.6114 20.9659 18.1772L20.9392 18.1322L19.129 15.0301L19.1081 14.9951C18.8539 14.5642 18.7247 14.3467 18.5606 14.2625C18.4711 14.2169 18.3722 14.1931 18.2718 14.1931C18.1714 14.1931 18.0724 14.2169 17.983 14.2625C17.8163 14.3492 17.6829 14.5767 17.4179 15.0334L15.6135 18.1355L15.6077 18.1463C15.3435 18.6031 15.211 18.8306 15.221 19.0181C15.2265 19.1191 15.2556 19.2174 15.306 19.3051C15.3564 19.3928 15.4266 19.4675 15.511 19.5232C15.6677 19.6257 15.9361 19.6257 16.4695 19.6257Z" fill="white"/>
</g>
</g>
<defs>
<clipPath id="clip0_40_396">
<rect width="26.67" height="26.67" fill="white" transform="translate(0.5 0.664978)"/>
</clipPath>
</defs>
</svg>
