<svg width="28" height="28" viewBox="0 0 28 28" fill="none" xmlns="http://www.w3.org/2000/svg">
<g id="Binance Coin/color" clip-path="url(#clip0_40_404)">
<g id="Group">
<path id="Vector" d="M13.835 27.335C21.1997 27.335 27.17 21.3647 27.17 14C27.17 6.63526 21.1997 0.664978 13.835 0.664978C6.47028 0.664978 0.5 6.63526 0.5 14C0.5 21.3647 6.47028 27.335 13.835 27.335Z" fill="#F3BA2F"/>
<path id="Vector_2" d="M10.598 12.6698L13.8351 9.43273L17.0738 12.6715L18.9574 10.7879L13.8351 5.66559L8.71447 10.7862L10.598 12.6698ZM5.50073 14L7.3843 12.1164L9.26787 14L7.3843 15.8835L5.50073 14ZM10.598 15.3301L13.8351 18.5672L17.0738 15.3285L18.9574 17.2112L13.8351 22.3343L8.71447 17.2137L8.71197 17.2112L10.598 15.3301ZM18.4023 14L20.2859 12.1164L22.1695 14L20.2859 15.8835L18.4023 14ZM15.7453 13.9983H15.747V14L13.8351 15.9119L11.9257 14.0033L11.9224 14L11.9257 13.9975L12.2599 13.6624L12.4224 13.4999L13.8351 12.0881L15.7462 13.9991L15.7453 13.9983Z" fill="white"/>
</g>
</g>
<defs>
<clipPath id="clip0_40_404">
<rect width="26.67" height="26.67" fill="white" transform="translate(0.5 0.664978)"/>
</clipPath>
</defs>
</svg>
