<svg width="30" height="29" viewBox="0 0 30 29" fill="none" xmlns="http://www.w3.org/2000/svg">
<path id="Vector" d="M18.9991 28.3773C19.2644 28.3773 19.5187 28.272 19.7063 28.0844C19.8938 27.8969 19.9991 27.6425 19.9991 27.3773C19.9991 27.1121 19.8938 26.8577 19.7063 26.6702C19.5187 26.4827 19.2644 26.3773 18.9991 26.3773H5.99915C4.93828 26.3773 3.92086 25.9559 3.17072 25.2057C2.42057 24.4556 1.99915 23.4382 1.99915 22.3773V6.37732C1.99915 5.31645 2.42057 4.29904 3.17072 3.54889C3.92086 2.79875 4.93828 2.37732 5.99915 2.37732H18.9991C19.2644 2.37732 19.5187 2.27196 19.7063 2.08443C19.8938 1.89689 19.9991 1.64254 19.9991 1.37732C19.9991 1.1121 19.8938 0.857749 19.7063 0.670213C19.5187 0.482676 19.2644 0.377319 18.9991 0.377319H5.99915C4.40785 0.377319 2.88172 1.00946 1.75651 2.13468C0.631287 3.2599 -0.000854492 4.78602 -0.000854492 6.37732V22.3773C-0.000854492 23.9686 0.631287 25.4947 1.75651 26.62C2.88172 27.7452 4.40785 28.3773 5.99915 28.3773H18.9991ZM21.2911 6.66932C21.384 6.57619 21.4944 6.50231 21.6159 6.45189C21.7374 6.40148 21.8676 6.37553 21.9991 6.37553C22.1307 6.37553 22.2609 6.40148 22.3824 6.45189C22.5039 6.50231 22.6143 6.57619 22.7071 6.66932L29.7071 13.6693C29.8003 13.7622 29.8742 13.8726 29.9246 13.9941C29.975 14.1155 30.0009 14.2458 30.0009 14.3773C30.0009 14.5089 29.975 14.6391 29.9246 14.7606C29.8742 14.8821 29.8003 14.9924 29.7071 15.0853L22.7071 22.0853C22.6142 22.1783 22.5038 22.252 22.3823 22.3024C22.2608 22.3527 22.1306 22.3786 21.9991 22.3786C21.8677 22.3786 21.7375 22.3527 21.616 22.3024C21.4945 22.252 21.3841 22.1783 21.2911 22.0853C21.1982 21.9923 21.1244 21.882 21.0741 21.7605C21.0238 21.639 20.9979 21.5088 20.9979 21.3773C20.9979 21.2458 21.0238 21.1156 21.0741 20.9942C21.1244 20.8727 21.1982 20.7623 21.2911 20.6693L26.5851 15.3773H8.99915C8.73393 15.3773 8.47958 15.272 8.29204 15.0844C8.1045 14.8969 7.99915 14.6425 7.99915 14.3773C7.99915 14.1121 8.1045 13.8577 8.29204 13.6702C8.47958 13.4827 8.73393 13.3773 8.99915 13.3773H26.5851L21.2911 8.08532C21.198 7.99243 21.1241 7.88208 21.0737 7.76059C21.0233 7.6391 20.9974 7.50885 20.9974 7.37732C20.9974 7.24578 21.0233 7.11554 21.0737 6.99405C21.1241 6.87256 21.198 6.76221 21.2911 6.66932Z" fill="white"/>
</svg>
