<svg width="28" height="27" viewBox="0 0 28 27" fill="none" xmlns="http://www.w3.org/2000/svg">
<g id="Cloakcoin/color" clip-path="url(#clip0_10_149)">
<g id="Group">
<path id="Vector" d="M13.7767 26.8334C21.1405 26.8334 27.11 20.8638 27.11 13.5C27.11 6.13622 21.1405 0.166687 13.7767 0.166687C6.4129 0.166687 0.443359 6.13622 0.443359 13.5C0.443359 20.8638 6.4129 26.8334 13.7767 26.8334Z" fill="#3574D2"/>
<path id="Vector_2" d="M13.7792 4.33337C18.835 4.34171 22.945 8.45504 22.9434 13.5025C22.9417 18.5559 18.8284 22.6667 13.7734 22.6667H13.765C8.71505 22.6617 4.60755 18.5442 4.61005 13.4884C4.61255 8.44171 8.72671 4.33337 13.7792 4.33337ZM13.7767 5.51504C9.37921 5.51504 5.80005 9.09671 5.79838 13.4984C5.79755 17.895 9.37171 21.475 13.7667 21.4784C18.1692 21.4784 21.7542 17.8984 21.7575 13.4984C21.7607 12.4501 21.5557 11.4116 21.1544 10.4432C20.7532 9.47475 20.1636 8.59559 19.42 7.85671C18.6813 7.11266 17.8022 6.52257 16.8338 6.12061C15.8654 5.71866 14.8269 5.51283 13.7784 5.51504H13.7767ZM17.7167 12.6809C17.9992 14.1134 17.6359 15.3167 16.6067 16.3617L16.465 16.5042L16.285 16.4159C16.1854 16.3671 16.0842 16.3216 15.9817 16.2792L15.5742 16.1092L15.9025 15.8142C16.5434 15.2392 16.8842 14.4884 16.9167 13.5834C16.95 12.6784 16.6292 11.8892 15.9642 11.2384C15.3813 10.6665 14.5966 10.3474 13.78 10.35C13.3338 10.3497 12.8925 10.4446 12.4858 10.6284C12.0791 10.8122 11.7164 11.0807 11.4217 11.4159C10.7567 12.1742 10.5025 13.0975 10.6884 14.085C10.8033 14.7383 11.1294 15.3359 11.6167 15.7859L11.9392 16.085L11.5317 16.2492C11.43 16.29 11.3234 16.3342 11.2092 16.3825L11.0342 16.4559L10.9009 16.32C10.215 15.6134 9.84338 14.8 9.76588 13.8334C9.60171 11.7959 10.9225 10.0009 12.9075 9.56587C13.2004 9.50108 13.4993 9.46811 13.7992 9.46754C14.7227 9.46843 15.6174 9.78898 16.3314 10.3747C17.0454 10.9605 17.5346 11.7753 17.7159 12.6809H17.7167ZM8.75421 17.9225C7.52421 16.5509 6.52671 14.1175 7.41838 11.4025C7.85901 10.0649 8.71032 8.90037 9.85116 8.07463C10.992 7.24889 12.3642 6.80403 13.7725 6.80337C15.1689 6.80175 16.5308 7.23711 17.6673 8.04843C18.8038 8.85975 19.658 10.0064 20.11 11.3275C20.8984 13.6375 20.35 16.2642 18.7142 18.0192L18.5059 18.2417L17.7584 17.4067L17.9234 17.2209C18.9467 16.0684 19.4217 14.7017 19.3359 13.16C19.2559 11.7517 18.6959 10.525 17.6709 9.51504C16.6359 8.49132 15.2375 7.91931 13.7817 7.92421C12.4446 7.92479 11.152 8.40531 10.1392 9.27837C9.35447 9.94794 8.77425 10.8251 8.46505 11.8092C8.1509 12.7875 8.11626 13.834 8.36505 14.8309C8.57201 15.6845 8.98065 16.4761 9.55671 17.1392L9.72005 17.3284L8.95671 18.15L8.75421 17.9225Z" fill="white"/>
</g>
</g>
<defs>
<clipPath id="clip0_10_149">
<rect width="26.6667" height="26.6667" fill="white" transform="translate(0.443359 0.166687)"/>
</clipPath>
</defs>
</svg>
