<svg width="40" height="41" viewBox="0 0 40 41" fill="none" xmlns="http://www.w3.org/2000/svg">
<path id="Subtract" fill-rule="evenodd" clip-rule="evenodd" d="M8.40635 0.873266L4.30118 4.89466L0.496562 8.78199C-0.171583 9.46466 -0.165706 10.5579 0.509741 11.2334L5.9415 16.6651C7.98334 18.707 7.98335 22.0175 5.9415 24.0593L0.536539 29.4643C-0.149372 30.1502 -0.143251 31.2642 0.550156 31.9425L4.30118 35.612L8.40635 39.8009C9.08488 40.4933 10.198 40.4989 10.8835 39.8134L16.2895 34.4074C18.3314 32.3655 21.6419 32.3655 23.6837 34.4074L29.1144 39.8381C29.7903 40.5139 30.8844 40.5194 31.5669 39.8502L35.8899 35.612L39.4779 31.9425C40.1454 31.2597 40.1393 30.1669 39.4641 29.4917L34.0317 24.0593C31.9899 22.0175 31.9899 18.707 34.0317 16.6652L39.4903 11.2066C40.1551 10.5418 40.1728 9.46952 39.5302 8.78316L35.8899 4.89466L31.5659 0.825003C30.88 0.179402 29.8052 0.195682 29.1391 0.861764L23.6837 6.31712C21.6419 8.35897 18.3314 8.35897 16.2895 6.31712L10.8583 0.885905C10.1827 0.210245 9.08894 0.204608 8.40635 0.873266ZM19.9864 26.8978C23.4756 26.8978 26.3042 24.0693 26.3042 20.5801C26.3042 17.0909 23.4756 14.2623 19.9864 14.2623C16.4973 14.2623 13.6687 17.0909 13.6687 20.5801C13.6687 24.0693 16.4973 26.8978 19.9864 26.8978Z" fill="#AEB7FF"/>
</svg>
