<svg width="36" height="17" viewBox="0 0 36 17" fill="none" xmlns="http://www.w3.org/2000/svg">
<path id="Vector" d="M7.64982 0.588596C7.74963 0.673951 7.83165 0.778132 7.8912 0.895187C7.95074 1.01224 7.98665 1.13988 7.99686 1.27081C8.00708 1.40175 7.9914 1.53341 7.95073 1.65828C7.91006 1.78315 7.84519 1.89879 7.75982 1.9986L2.31782 8.3486L7.75782 14.6986C7.84909 14.7974 7.91949 14.9136 7.96482 15.0402C8.01015 15.1668 8.02947 15.3013 8.02162 15.4355C8.01378 15.5698 7.97893 15.7011 7.91916 15.8216C7.85939 15.9421 7.77594 16.0493 7.67379 16.1367C7.57163 16.2242 7.45288 16.2902 7.32464 16.3307C7.1964 16.3713 7.0613 16.3855 6.92743 16.3726C6.79355 16.3597 6.66366 16.3199 6.54551 16.2557C6.42736 16.1914 6.32339 16.104 6.23982 15.9986L0.239822 8.9986C0.0848923 8.81746 -0.000244141 8.58695 -0.000244141 8.3486C-0.000244141 8.11024 0.0848923 7.87973 0.239822 7.6986L6.23982 0.698597C6.32518 0.598786 6.42936 0.516766 6.54641 0.457221C6.66347 0.397675 6.79111 0.36177 6.92204 0.351555C7.05297 0.341341 7.18463 0.357017 7.30951 0.397688C7.43438 0.43836 7.55002 0.50323 7.64982 0.588596ZM28.2398 14.6986C28.0674 14.9002 27.9822 15.162 28.0028 15.4264C28.0234 15.6908 28.1483 15.9362 28.3498 16.1086C28.5514 16.281 28.8132 16.3662 29.0776 16.3456C29.342 16.325 29.5874 16.2002 29.7598 15.9986L35.7598 8.9986C35.9147 8.81746 35.9999 8.58695 35.9999 8.3486C35.9999 8.11024 35.9147 7.87973 35.7598 7.6986L29.7598 0.698597C29.6745 0.598792 29.5703 0.516777 29.4532 0.457235C29.3362 0.397693 29.2085 0.36179 29.0776 0.351575C28.9467 0.341361 28.815 0.357036 28.6901 0.397704C28.5653 0.438372 28.4496 0.503237 28.3498 0.588596C28.25 0.673955 28.168 0.778137 28.1085 0.895192C28.0489 1.01225 28.013 1.13988 28.0028 1.27081C27.9926 1.40175 28.0083 1.5334 28.0489 1.65828C28.0896 1.78315 28.1545 1.89879 28.2398 1.9986L33.6838 8.3486L28.2398 14.6986ZM9.99982 10.3486C10.5303 10.3486 11.039 10.1379 11.414 9.76281C11.7891 9.38774 11.9998 8.87903 11.9998 8.3486C11.9998 7.81816 11.7891 7.30946 11.414 6.93438C11.039 6.55931 10.5303 6.3486 9.99982 6.3486C9.46939 6.3486 8.96068 6.55931 8.58561 6.93438C8.21054 7.30946 7.99982 7.81816 7.99982 8.3486C7.99982 8.87903 8.21054 9.38774 8.58561 9.76281C8.96068 10.1379 9.46939 10.3486 9.99982 10.3486ZM19.9998 8.3486C19.9998 8.87903 19.7891 9.38774 19.414 9.76281C19.039 10.1379 18.5303 10.3486 17.9998 10.3486C17.4694 10.3486 16.9607 10.1379 16.5856 9.76281C16.2105 9.38774 15.9998 8.87903 15.9998 8.3486C15.9998 7.81816 16.2105 7.30946 16.5856 6.93438C16.9607 6.55931 17.4694 6.3486 17.9998 6.3486C18.5303 6.3486 19.039 6.55931 19.414 6.93438C19.7891 7.30946 19.9998 7.81816 19.9998 8.3486ZM25.9998 10.3486C26.5303 10.3486 27.039 10.1379 27.414 9.76281C27.7891 9.38774 27.9998 8.87903 27.9998 8.3486C27.9998 7.81816 27.7891 7.30946 27.414 6.93438C27.039 6.55931 26.5303 6.3486 25.9998 6.3486C25.4694 6.3486 24.9607 6.55931 24.5856 6.93438C24.2105 7.30946 23.9998 7.81816 23.9998 8.3486C23.9998 8.87903 24.2105 9.38774 24.5856 9.76281C24.9607 10.1379 25.4694 10.3486 25.9998 10.3486Z" fill="white"/>
</svg>
