<svg width="28" height="28" viewBox="0 0 28 28" fill="none" xmlns="http://www.w3.org/2000/svg">
<g id="Polygon/color" clip-path="url(#clip0_40_412)">
<g id="Group">
<path id="Vector" d="M13.835 27.335C21.1997 27.335 27.17 21.3647 27.17 14C27.17 6.63529 21.1997 0.665009 13.835 0.665009C6.47028 0.665009 0.5 6.63529 0.5 14C0.5 21.3647 6.47028 27.335 13.835 27.335Z" fill="#6F41D8"/>
<path id="Vector_2" d="M18.0788 11.2438C17.7712 11.0647 17.372 11.0647 17.0336 11.2438L14.6342 12.6223L13.0048 13.5208L10.6053 14.8985C10.2978 15.0785 9.89859 15.0785 9.56021 14.8985L7.65331 13.82C7.34577 13.6408 7.13074 13.3116 7.13074 12.9516V10.8246C7.13074 10.4654 7.31493 10.1362 7.65331 9.95618L9.52854 8.90772C9.83691 8.7277 10.237 8.7277 10.5753 8.90772L12.4506 9.95618C12.7589 10.1362 12.974 10.4654 12.974 10.8246V12.2031L14.6033 11.2738V9.89617C14.6051 9.71724 14.5572 9.54131 14.465 9.38799C14.3727 9.23466 14.2397 9.10995 14.0808 9.02773L10.6053 7.05082C10.2978 6.8708 9.89859 6.8708 9.56021 7.05082L6.0231 9.02773C5.86416 9.10995 5.73116 9.23466 5.63889 9.38799C5.54663 9.54131 5.49874 9.71724 5.50054 9.89617V13.88C5.50054 14.2401 5.68473 14.5693 6.0231 14.7493L9.56021 16.7262C9.86775 16.9054 10.2678 16.9054 10.6053 16.7262L13.0048 15.3777L14.6342 14.4492L17.0336 13.1016C17.3412 12.9216 17.7404 12.9216 18.0788 13.1016L19.9548 14.15C20.2632 14.3292 20.4774 14.6584 20.4774 15.0185V17.1454C20.4774 17.5046 20.2941 17.8338 19.9548 18.0139L18.0796 19.0923C17.7712 19.2723 17.3712 19.2723 17.0336 19.0923L15.1576 18.0439C14.8492 17.8638 14.6342 17.5346 14.6342 17.1754V15.7969L13.0048 16.7262V18.1039C13.0048 18.4631 13.189 18.7931 13.5274 18.9723L17.0645 20.9492C17.372 21.1292 17.7712 21.1292 18.1096 20.9492L21.6467 18.9723C21.9543 18.7931 22.1693 18.4639 22.1693 18.1039V14.12C22.1711 13.9411 22.1232 13.7652 22.0309 13.6118C21.9387 13.4585 21.8057 13.3338 21.6467 13.2516L18.0796 11.2438H18.0788Z" fill="white"/>
</g>
</g>
<defs>
<clipPath id="clip0_40_412">
<rect width="26.67" height="26.67" fill="white" transform="translate(0.5 0.665009)"/>
</clipPath>
</defs>
</svg>
