<svg width="32" height="25" viewBox="0 0 32 25" fill="none" xmlns="http://www.w3.org/2000/svg">
<path id="Vector" d="M23.4459 14.3806C23.8104 13.7655 24.0027 13.0636 24.0027 12.3486C24.0027 11.6336 23.8104 10.9317 23.4459 10.3166L24.7059 9.0566C24.7989 8.96376 24.8726 8.85351 24.923 8.73215C24.9734 8.61079 24.9993 8.4807 24.9994 8.34931C24.9995 8.21792 24.9737 8.08779 24.9235 7.96636C24.8733 7.84493 24.7997 7.73458 24.7069 7.6416C24.614 7.54863 24.5038 7.47485 24.3824 7.42448C24.2611 7.37411 24.131 7.34814 23.9996 7.34805C23.8682 7.34795 23.7381 7.37374 23.6166 7.42394C23.4952 7.47414 23.3849 7.54776 23.2919 7.6406L22.0319 8.9006C21.4163 8.53761 20.7145 8.34694 19.9999 8.3486C19.2599 8.3486 18.5639 8.5506 17.9679 8.9026L16.7079 7.6426C16.5204 7.45483 16.2659 7.34923 16.0006 7.34905C15.7352 7.34886 15.4807 7.45409 15.2929 7.6416C15.1051 7.82911 14.9995 8.08353 14.9993 8.3489C14.9991 8.61426 15.1044 8.86883 15.2919 9.0566L16.5519 10.3166C16.1889 10.9321 15.9982 11.634 15.9999 12.3486C15.9999 13.0886 16.2019 13.7846 16.5539 14.3806L15.2939 15.6406C15.1061 15.8281 15.0005 16.0825 15.0003 16.3479C15.0001 16.6133 15.1054 16.8678 15.2929 17.0556C15.4804 17.2434 15.7348 17.349 16.0002 17.3492C16.2655 17.3493 16.5201 17.2441 16.7079 17.0566L17.9679 15.7966C18.5837 16.1594 19.2854 16.3505 20.0002 16.3502C20.7149 16.3498 21.4164 16.158 22.0319 15.7946L23.2919 17.0546C23.4794 17.2424 23.7338 17.348 23.9992 17.3482C24.2645 17.3483 24.5191 17.2431 24.7069 17.0556C24.8947 16.8681 25.0002 16.6137 25.0004 16.3483C25.0006 16.0829 24.8954 15.8284 24.7079 15.6406L23.4479 14.3806H23.4459ZM19.9999 14.3486C19.4694 14.3486 18.9607 14.1379 18.5857 13.7628C18.2106 13.3877 17.9999 12.879 17.9999 12.3486C17.9999 11.8182 18.2106 11.3095 18.5857 10.9344C18.9607 10.5593 19.4694 10.3486 19.9999 10.3486C20.5303 10.3486 21.039 10.5593 21.4141 10.9344C21.7892 11.3095 21.9999 11.8182 21.9999 12.3486C21.9999 12.879 21.7892 13.3877 21.4141 13.7628C21.039 14.1379 20.5303 14.3486 19.9999 14.3486ZM7.99988 7.3486C7.99988 7.08339 7.89452 6.82903 7.70698 6.6415C7.51945 6.45396 7.26509 6.3486 6.99988 6.3486C6.73466 6.3486 6.48031 6.45396 6.29277 6.6415C6.10523 6.82903 5.99988 7.08339 5.99988 7.3486V17.3486C5.99988 17.6138 6.10523 17.8682 6.29277 18.0557C6.48031 18.2432 6.73466 18.3486 6.99988 18.3486C7.26509 18.3486 7.51945 18.2432 7.70698 18.0557C7.89452 17.8682 7.99988 17.6138 7.99988 17.3486V7.3486ZM-0.00012207 6.3486C-0.00012207 4.7573 0.632019 3.23118 1.75724 2.10596C2.88246 0.980744 4.40858 0.348602 5.99988 0.348602H25.9999C27.5912 0.348602 29.1173 0.980744 30.2425 2.10596C31.3677 3.23118 31.9999 4.7573 31.9999 6.3486V18.3486C31.9999 19.9399 31.3677 21.466 30.2425 22.5912C29.1173 23.7165 27.5912 24.3486 25.9999 24.3486H5.99988C4.40858 24.3486 2.88246 23.7165 1.75724 22.5912C0.632019 21.466 -0.00012207 19.9399 -0.00012207 18.3486V6.3486ZM5.99988 2.3486C4.93901 2.3486 3.9216 2.77003 3.17145 3.52017C2.42131 4.27032 1.99988 5.28774 1.99988 6.3486V18.3486C1.99988 19.4095 2.42131 20.4269 3.17145 21.177C3.9216 21.9272 4.93901 22.3486 5.99988 22.3486H25.9999C27.0607 22.3486 28.0782 21.9272 28.8283 21.177C29.5784 20.4269 29.9999 19.4095 29.9999 18.3486V6.3486C29.9999 5.28774 29.5784 4.27032 28.8283 3.52017C28.0782 2.77003 27.0607 2.3486 25.9999 2.3486H5.99988Z" fill="white"/>
</svg>
