<svg width="53" height="48" viewBox="0 0 53 48" fill="none" xmlns="http://www.w3.org/2000/svg">
<g id="solar:wallet-outline">
<g id="Group">
<path id="Vector" d="M41.9583 24C41.9583 24.5304 41.7257 25.0391 41.3115 25.4142C40.8974 25.7893 40.3357 26 39.75 26C39.1643 26 38.6026 25.7893 38.1885 25.4142C37.7743 25.0391 37.5417 24.5304 37.5417 24C37.5417 23.4696 37.7743 22.9609 38.1885 22.5858C38.6026 22.2107 39.1643 22 39.75 22C40.3357 22 40.8974 22.2107 41.3115 22.5858C41.7257 22.9609 41.9583 23.4696 41.9583 24Z" fill="white"/>
<path id="Vector_2" fill-rule="evenodd" clip-rule="evenodd" d="M21.9597 6.5H28.832C32.8909 6.5 36.1063 6.5 38.6215 6.806C41.2097 7.122 43.3054 7.786 44.9595 9.282C47 11.132 47.6514 13.608 47.8877 16.822C49.1619 17.328 50.1248 18.402 50.2285 19.762C50.2396 19.884 50.2396 20.014 50.2396 20.134V27.866C50.2396 27.986 50.2396 28.116 50.2308 28.236C50.1248 29.596 49.1619 30.672 47.8877 31.18C47.6514 34.392 47 36.868 44.9595 38.718C43.3054 40.214 41.2097 40.878 38.6215 41.194C36.104 41.5 32.8909 41.5 28.832 41.5H21.9597C17.9008 41.5 14.6854 41.5 12.1701 41.194C9.58196 40.878 7.48626 40.214 5.83221 38.718C4.18038 37.22 3.44721 35.322 3.0983 32.978C2.76042 30.698 2.76042 27.788 2.76042 24.112V23.888C2.76042 20.212 2.76042 17.3 3.0983 15.022C3.44721 12.678 4.18038 10.78 5.83221 9.282C7.48626 7.786 9.58196 7.122 12.1701 6.806C14.6876 6.5 17.9008 6.5 21.9597 6.5ZM44.5377 31.5H40.2579C35.521 31.5 31.4665 28.244 31.4665 24C31.4665 19.756 35.521 16.5 40.2557 16.5H44.5355C44.2837 13.818 43.7162 12.4 42.6142 11.404C41.6801 10.558 40.3993 10.05 38.1777 9.78C35.9097 9.504 32.9174 9.5 28.7061 9.5H22.0811C17.8698 9.5 14.8798 9.504 12.6074 9.78C10.388 10.05 9.10717 10.558 8.17305 11.404C7.23892 12.25 6.678 13.41 6.37988 15.422C6.07513 17.478 6.07071 20.186 6.07071 24C6.07071 27.814 6.07513 30.522 6.37988 32.58C6.678 34.59 7.23892 35.75 8.17305 36.596C9.10717 37.442 10.388 37.95 12.6096 38.22C14.8798 38.496 17.8698 38.5 22.0811 38.5H28.7061C32.9174 38.5 35.9097 38.496 38.1799 38.22C40.3993 37.95 41.6801 37.442 42.6142 36.596C43.7162 35.6 44.2859 34.184 44.5377 31.5ZM11.5938 16C11.5938 15.6022 11.7683 15.2206 12.0789 14.9393C12.3895 14.658 12.8107 14.5 13.25 14.5H22.0833C22.5226 14.5 22.9439 14.658 23.2545 14.9393C23.5651 15.2206 23.7396 15.6022 23.7396 16C23.7396 16.3978 23.5651 16.7794 23.2545 17.0607C22.9439 17.342 22.5226 17.5 22.0833 17.5H13.25C12.8107 17.5 12.3895 17.342 12.0789 17.0607C11.7683 16.7794 11.5938 16.3978 11.5938 16ZM46.2072 19.5H40.2579C37.1133 19.5 34.779 21.618 34.779 24C34.779 26.382 37.1133 28.5 40.2557 28.5H46.258C46.7129 28.474 46.9094 28.196 46.9249 28.028V19.972C46.9094 19.804 46.7129 19.526 46.258 19.502H46.205L46.2072 19.5Z" fill="white"/>
</g>
</g>
</svg>
